<svg width="492" height="291" viewBox="0 0 492 291" fill="none" xmlns="http://www.w3.org/2000/svg">
<path d="M484.132 24.288L468.016 8.06001C462.944 2.99201 456.196 0.200005 448.984 0.200005C441.776 0.200005 435.02 2.99201 429.948 8.06001L246.108 191.908L62.056 7.856C56.992 2.788 50.236 0 43.028 0C35.82 0 29.06 2.788 23.992 7.856L7.872 23.984C-2.624 34.472 -2.624 51.556 7.872 62.044L227.008 281.968C232.072 287.032 238.82 290.6 246.092 290.6H246.176C253.388 290.6 260.136 287.028 265.2 281.968L484.132 62.64C489.204 57.576 491.988 50.624 491.996 43.416C491.996 36.204 489.204 29.348 484.132 24.288Z" fill="#2062E2"/>
</svg>
