<svg width="30" height="32" viewBox="0 0 30 32" fill="none" xmlns="http://www.w3.org/2000/svg">
<rect x="6.19824" y="0.25" width="3.21082" height="7.24882" rx="1.43642" fill="#2062E2"/>
<rect x="1.16504" y="4.84375" width="27.6697" height="25.8125" rx="3.28125" stroke="#2062E2" stroke-width="2.1875" stroke-linecap="round" stroke-linejoin="round"/>
<path d="M11.9307 16.855C12.6412 17.002 13.1843 17.296 13.56 17.737C13.9438 18.1698 14.1357 18.6966 14.1357 19.3172C14.1357 19.8236 13.9969 20.2932 13.7192 20.726C13.4497 21.1588 13.0332 21.51 12.4697 21.7795C11.9144 22.0408 11.2243 22.1715 10.3995 22.1715C9.79512 22.1715 9.19487 22.098 8.59871 21.951C8.01071 21.804 7.50029 21.5957 7.06746 21.3262L7.94946 19.501C8.28429 19.7297 8.65996 19.9052 9.07646 20.0277C9.50112 20.1502 9.91762 20.2115 10.326 20.2115C10.7425 20.2115 11.0732 20.1339 11.3182 19.9787C11.5632 19.8236 11.6857 19.6031 11.6857 19.3172C11.6857 18.7619 11.2488 18.4842 10.375 18.4842H9.35821V16.953L10.8895 15.2992H7.50846V13.425H13.707V14.944L11.9307 16.855ZM18.6993 22.1715C17.9643 22.1715 17.311 21.9959 16.7393 21.6447C16.1676 21.2936 15.7185 20.7832 15.3918 20.1135C15.0733 19.4357 14.9141 18.6353 14.9141 17.7125C14.9141 16.7897 15.0733 15.9934 15.3918 15.3237C15.7185 14.6459 16.1676 14.1314 16.7393 13.7802C17.311 13.4291 17.9643 13.2535 18.6993 13.2535C19.4261 13.2535 20.0754 13.4291 20.6471 13.7802C21.2187 14.1314 21.6638 14.6459 21.9823 15.3237C22.309 15.9934 22.4723 16.7897 22.4723 17.7125C22.4723 18.6353 22.309 19.4357 21.9823 20.1135C21.6638 20.7832 21.2187 21.2936 20.6471 21.6447C20.0754 21.9959 19.4261 22.1715 18.6993 22.1715ZM18.6993 20.187C19.1076 20.187 19.4302 19.991 19.6671 19.599C19.9121 19.1988 20.0346 18.57 20.0346 17.7125C20.0346 16.855 19.9121 16.2302 19.6671 15.8382C19.4302 15.4381 19.1076 15.238 18.6993 15.238C18.2828 15.238 17.9521 15.4381 17.7071 15.8382C17.4702 16.2302 17.3518 16.855 17.3518 17.7125C17.3518 18.57 17.4702 19.1988 17.7071 19.599C17.9521 19.991 18.2828 20.187 18.6993 20.187Z" fill="#2062E2"/>
<rect x="20.6475" y="0.25" width="3.21082" height="7.24882" rx="1.43642" fill="#2062E2"/>
</svg>
